<?xml version="1.0" encoding="UTF-8" standalone="no"?>
<svg
   width="29.891188"
   height="23.02133"
   viewBox="0 0 29.891188 23.02133"
   preserveAspectRatio="xMinYMin"
   version="1.1"
   id="svg2"
   sodipodi:docname="jcb.svg"
   inkscape:version="1.4.2 (ebf0e940, 2025-05-08)"
   xmlns:inkscape="http://www.inkscape.org/namespaces/inkscape"
   xmlns:sodipodi="http://sodipodi.sourceforge.net/DTD/sodipodi-0.dtd"
   xmlns="http://www.w3.org/2000/svg"
   xmlns:svg="http://www.w3.org/2000/svg">
  <sodipodi:namedview
     id="namedview2"
     pagecolor="#ffffff"
     bordercolor="#000000"
     borderopacity="0.25"
     inkscape:showpageshadow="2"
     inkscape:pageopacity="0.0"
     inkscape:pagecheckerboard="0"
     inkscape:deskcolor="#d1d1d1"
     inkscape:zoom="5.4350282"
     inkscape:cx="32.198545"
     inkscape:cy="17.019231"
     inkscape:window-width="1392"
     inkscape:window-height="996"
     inkscape:window-x="1901"
     inkscape:window-y="30"
     inkscape:window-maximized="0"
     inkscape:current-layer="svg2" />
  <defs
     id="defs1">
    <pattern
       id="pattern-0"
       x="0"
       y="0"
       width="20"
       height="20"
       patternUnits="userSpaceOnUse"
       viewBox="0 0 100 100">
      <path
         d="M 0 0 L 50 0 L 50 100 L 0 100 Z"
         style="fill: black;"
         id="path1" />
    </pattern>
  </defs>
  <g
     transform="matrix(0.100306,0,0,0.100306,-1.0431824,9.6104179)"
     id="g6321">
    <g
       transform="matrix(1.8215159,0,0,1.8215159,-8.5437653,-109.83667)"
       id="g6323">
      <path
         style="fill:#ffffff"
         id="path6325"
         d="m 174,108.3 c 0,14 -11.4,25.4 -25.4,25.4 H 10.4 V 33.1 C 10.4,19.1 21.8,7.7 35.8,7.7 H 174 Z"
         class="st0" />
      <g
         id="g6327">
        <linearGradient
           gradientTransform="matrix(1.125,0,0,1.125,-11.9755,-13.8615)"
           y2="81.398598"
           x2="157.3299"
           y1="81.398598"
           x1="117.3856"
           gradientUnits="userSpaceOnUse"
           id="SVGID_1_">
          <stop
             id="stop6330"
             style="stop-color:#007940"
             offset="0" />
          <stop
             id="stop6332"
             style="stop-color:#00873F"
             offset="0.2285" />
          <stop
             id="stop6334"
             style="stop-color:#40A737"
             offset="0.7433" />
          <stop
             id="stop6336"
             style="stop-color:#5CB531"
             offset="1" />
        </linearGradient>
        <path
           style="fill:url(#SVGID_1_)"
           id="path6338"
           d="m 129,82.5 h 10.5 c 0.3,0 1,-0.1 1.3,-0.1 2,-0.4 3.7,-2.2 3.7,-4.7 0,-2.4 -1.7,-4.2 -3.7,-4.7 -0.3,-0.1 -0.9,-0.1 -1.3,-0.1 H 129 Z"
           class="st1" />
        <linearGradient
           gradientTransform="matrix(1.125,0,0,1.125,-11.9755,-13.8615)"
           y2="75.171402"
           x2="157.3318"
           y1="75.171402"
           x1="117.3844"
           gradientUnits="userSpaceOnUse"
           id="SVGID_2_">
          <stop
             id="stop6341"
             style="stop-color:#007940"
             offset="0" />
          <stop
             id="stop6343"
             style="stop-color:#00873F"
             offset="0.2285" />
          <stop
             id="stop6345"
             style="stop-color:#40A737"
             offset="0.7433" />
          <stop
             id="stop6347"
             style="stop-color:#5CB531"
             offset="1" />
        </linearGradient>
        <path
           style="fill:url(#SVGID_2_)"
           id="path6349"
           d="m 138.3,16.2 c -10,0 -18.2,8.1 -18.2,18.2 v 18.9 h 25.7 c 0.6,0 1.3,0 1.8,0.1 5.8,0.3 10.1,3.3 10.1,8.5 0,4.1 -2.9,7.6 -8.3,8.3 v 0.2 c 5.9,0.4 10.4,3.7 10.4,8.8 0,5.5 -5,9.1 -11.6,9.1 H 120 v 37 h 26.7 c 10,0 18.2,-8.1 18.2,-18.2 V 16.2 Z"
           class="st2" />
        <linearGradient
           gradientTransform="matrix(1.125,0,0,1.125,-11.9755,-13.8615)"
           y2="68.399101"
           x2="157.33051"
           y1="68.399101"
           x1="117.3846"
           gradientUnits="userSpaceOnUse"
           id="SVGID_3_">
          <stop
             id="stop6352"
             style="stop-color:#007940"
             offset="0" />
          <stop
             id="stop6354"
             style="stop-color:#00873F"
             offset="0.2285" />
          <stop
             id="stop6356"
             style="stop-color:#40A737"
             offset="0.7433" />
          <stop
             id="stop6358"
             style="stop-color:#5CB531"
             offset="1" />
        </linearGradient>
        <path
           style="fill:url(#SVGID_3_)"
           id="path6360"
           d="m 143.2,63.1 c 0,-2.4 -1.7,-4 -3.7,-4.3 -0.2,0 -0.7,-0.1 -1,-0.1 H 129 v 8.8 h 9.5 c 0.3,0 0.9,0 1,-0.1 2,-0.3 3.7,-1.9 3.7,-4.3 z"
           class="st3" />
      </g>
      <linearGradient
         gradientTransform="matrix(1.125,0,0,1.125,-11.9755,-13.8615)"
         y2="75.171402"
         x2="68.522102"
         y1="75.171402"
         x1="27.9594"
         gradientUnits="userSpaceOnUse"
         id="SVGID_4_">
        <stop
           id="stop6363"
           style="stop-color:#1F286F"
           offset="0" />
        <stop
           id="stop6365"
           style="stop-color:#004E94"
           offset="0.4751" />
        <stop
           id="stop6367"
           style="stop-color:#0066B1"
           offset="0.8261" />
        <stop
           id="stop6369"
           style="stop-color:#006FBC"
           offset="1" />
      </linearGradient>
      <path
         style="fill:url(#SVGID_4_)"
         id="path6371"
         d="m 37.7,16.2 c -10,0 -18.2,8.1 -18.2,18.2 v 44.9 c 5.1,2.5 10.4,4.1 15.7,4.1 6.3,0 9.7,-3.8 9.7,-9 V 53.2 h 15.6 v 21.1 c 0,8.2 -5.1,14.9 -22.4,14.9 -10.5,0 -18.7,-2.3 -18.7,-2.3 v 38.3 h 26.7 c 10,0 18.2,-8.1 18.2,-18.2 V 16.2 Z"
         class="st4" />
      <linearGradient
         gradientTransform="matrix(1.125,0,0,1.125,-11.9755,-13.8615)"
         y2="75.171402"
         x2="111.8553"
         y1="75.171402"
         x1="72.459503"
         gradientUnits="userSpaceOnUse"
         id="SVGID_5_">
        <stop
           id="stop6374"
           style="stop-color:#6C2C2F"
           offset="0" />
        <stop
           id="stop6376"
           style="stop-color:#882730"
           offset="0.1735" />
        <stop
           id="stop6378"
           style="stop-color:#BE1833"
           offset="0.5731" />
        <stop
           id="stop6380"
           style="stop-color:#DC0436"
           offset="0.8585" />
        <stop
           id="stop6382"
           style="stop-color:#E60039"
           offset="1" />
      </linearGradient>
      <path
         style="fill:url(#SVGID_5_)"
         id="path6384"
         d="m 88,16.2 c -10,0 -18.2,8.1 -18.2,18.2 v 23.8 c 4.6,-3.9 12.6,-6.4 25.5,-5.8 6.9,0.3 14.3,2.2 14.3,2.2 v 7.7 c -3.7,-1.9 -8.1,-3.6 -13.8,-4 -9.8,-0.7 -15.7,4.1 -15.7,12.5 0,8.5 5.9,13.3 15.7,12.5 5.7,-0.4 10.1,-2.2 13.8,-4 V 87 c 0,0 -7.3,1.9 -14.3,2.2 -12.9,0.6 -20.9,-1.9 -25.5,-5.8 v 42 h 26.7 c 10,0 18.2,-8.1 18.2,-18.2 v -91 z"
         class="st5" />
    </g>
    <g
       id="g6386" />
  </g>
</svg>
